<svg xmlns="http://www.w3.org/2000/svg" xmlns:xlink="http://www.w3.org/1999/xlink" version="1.1" x="0px" y="0px" viewBox="0 0 100 125" enable-background="new 0 0 100 100" xml:space="preserve"><g><path d="M37.867,57.475v-2.006c0-2.029-1.406-3.723-3.292-4.193V21.242l2.707-2.353c0.44-0.382,0.619-0.985,0.458-1.545   L34.517,6.087C34.333,5.443,33.745,5,33.075,5h-0.541h-3.571h-0.541c-0.669,0-1.258,0.443-1.442,1.087l-3.223,11.257   c-0.161,0.56,0.018,1.163,0.458,1.545l2.707,2.353v30.034c-1.885,0.47-3.292,2.164-3.292,4.193v2.006   c-1.701,0.892-2.877,2.655-2.877,4.706v27.485c0,2.941,2.393,5.333,5.333,5.333h9.325c2.94,0,5.333-2.393,5.333-5.333V62.181   C40.744,60.13,39.568,58.367,37.867,57.475z M26.904,17.252L29.553,8h2.392l2.649,9.252l-2.502,2.174   c-0.013,0.011-0.022,0.025-0.034,0.037c-0.039,0.037-0.075,0.076-0.11,0.117c-0.03,0.035-0.061,0.069-0.088,0.106   c-0.029,0.04-0.053,0.083-0.078,0.126c-0.024,0.042-0.049,0.083-0.068,0.126c-0.02,0.043-0.034,0.088-0.05,0.134   c-0.016,0.047-0.033,0.094-0.044,0.142c-0.01,0.044-0.016,0.089-0.022,0.134c-0.008,0.054-0.014,0.107-0.016,0.161   c-0.001,0.017-0.005,0.032-0.005,0.049v30.577h-1.653V20.559c0-0.017-0.004-0.032-0.005-0.049   c-0.002-0.054-0.009-0.107-0.016-0.161c-0.006-0.046-0.012-0.091-0.023-0.135c-0.011-0.048-0.028-0.094-0.044-0.141   c-0.016-0.046-0.031-0.091-0.05-0.135c-0.02-0.043-0.044-0.084-0.068-0.125c-0.025-0.043-0.05-0.087-0.079-0.127   c-0.026-0.036-0.056-0.07-0.086-0.105c-0.036-0.041-0.071-0.081-0.111-0.118c-0.012-0.012-0.021-0.025-0.034-0.036L26.904,17.252z    M26.63,55.469c0-0.735,0.598-1.333,1.333-1.333h0.434c0.008,0,0.016,0.002,0.024,0.002h4.653c0.008,0,0.016-0.002,0.024-0.002   h0.434c0.735,0,1.333,0.598,1.333,1.333v1.379H26.63V55.469z M37.744,89.667c0,1.287-1.046,2.333-2.333,2.333h-9.325   c-1.287,0-2.333-1.047-2.333-2.333V62.181c0-1.287,1.047-2.333,2.333-2.333h9.325c1.287,0,2.333,1.047,2.333,2.333V89.667z"/><path d="M27.769,61.242c-0.829,0-1.5,0.671-1.5,1.5v26.364c0,0.829,0.671,1.5,1.5,1.5s1.5-0.671,1.5-1.5V62.742   C29.269,61.913,28.597,61.242,27.769,61.242z"/><path d="M33.729,61.242c-0.829,0-1.5,0.671-1.5,1.5v26.364c0,0.829,0.671,1.5,1.5,1.5s1.5-0.671,1.5-1.5V62.742   C35.229,61.913,34.558,61.242,33.729,61.242z"/><path d="M79.247,18.41c0-5.63-3.117-10.707-8.135-13.248c-0.015-0.008-0.031-0.011-0.045-0.018c-0.048-0.023-0.099-0.04-0.15-0.058   c-0.045-0.015-0.089-0.031-0.135-0.042c-0.045-0.011-0.092-0.017-0.138-0.023c-0.054-0.008-0.107-0.015-0.161-0.016   C70.466,5.004,70.451,5,70.434,5c-0.029,0-0.057,0.007-0.086,0.009c-0.053,0.003-0.106,0.007-0.159,0.016   c-0.048,0.008-0.095,0.019-0.141,0.032c-0.046,0.012-0.091,0.026-0.136,0.042c-0.047,0.018-0.092,0.038-0.137,0.06   c-0.042,0.021-0.083,0.042-0.123,0.067c-0.042,0.026-0.081,0.054-0.12,0.083c-0.038,0.029-0.075,0.059-0.111,0.091   c-0.036,0.033-0.07,0.069-0.103,0.106c-0.031,0.035-0.062,0.07-0.09,0.109c-0.032,0.043-0.06,0.089-0.087,0.136   c-0.015,0.025-0.033,0.046-0.046,0.073c-0.008,0.015-0.011,0.031-0.018,0.045c-0.023,0.048-0.04,0.098-0.058,0.149   c-0.015,0.045-0.031,0.09-0.042,0.136c-0.011,0.045-0.017,0.091-0.023,0.137c-0.008,0.054-0.015,0.108-0.016,0.162   c0,0.016-0.005,0.031-0.005,0.047v7.997c0,1.401-1.137,2.542-2.535,2.542h-4.011c-1.398,0-2.535-1.14-2.535-2.542V6.5   c0-0.017-0.004-0.032-0.005-0.049c-0.002-0.054-0.009-0.107-0.016-0.16c-0.007-0.047-0.013-0.094-0.024-0.14   c-0.011-0.045-0.026-0.088-0.041-0.132c-0.018-0.052-0.036-0.104-0.059-0.153c-0.007-0.015-0.01-0.03-0.017-0.045   c-0.013-0.025-0.031-0.046-0.045-0.07c-0.028-0.047-0.056-0.094-0.088-0.138c-0.028-0.038-0.058-0.073-0.089-0.108   c-0.033-0.037-0.067-0.073-0.103-0.106c-0.035-0.032-0.072-0.062-0.11-0.091c-0.04-0.03-0.08-0.058-0.122-0.084   c-0.039-0.024-0.079-0.045-0.12-0.065c-0.046-0.023-0.092-0.043-0.141-0.061c-0.043-0.016-0.086-0.029-0.131-0.041   c-0.048-0.013-0.097-0.025-0.147-0.033c-0.051-0.008-0.101-0.012-0.153-0.015C58.412,5.007,58.383,5,58.353,5   c-0.017,0-0.033,0.005-0.051,0.005c-0.052,0.002-0.103,0.008-0.155,0.016c-0.049,0.007-0.097,0.013-0.145,0.025   c-0.044,0.01-0.086,0.026-0.129,0.04c-0.053,0.018-0.105,0.036-0.155,0.06c-0.015,0.007-0.03,0.01-0.044,0.017   C52.657,7.71,49.54,12.786,49.54,18.41c0,5.649,3.175,10.75,8.168,13.267v36.647c-4.993,2.517-8.168,7.617-8.168,13.267   c0,5.624,3.117,10.7,8.134,13.247c0.013,0.007,0.027,0.008,0.04,0.015c0.073,0.035,0.15,0.061,0.229,0.084   c0.029,0.008,0.057,0.02,0.086,0.027c0.093,0.021,0.189,0.031,0.288,0.034c0.012,0,0.024,0.004,0.036,0.004   c0.004,0,0.007-0.001,0.011-0.001c0.122-0.001,0.239-0.02,0.353-0.048c0.032-0.008,0.063-0.019,0.095-0.029   c0.091-0.029,0.178-0.067,0.261-0.112c0.026-0.015,0.053-0.027,0.079-0.043c0.102-0.065,0.197-0.139,0.28-0.226   c0.017-0.017,0.03-0.037,0.046-0.055c0.07-0.08,0.131-0.168,0.183-0.262c0.009-0.016,0.022-0.028,0.031-0.044   c0.007-0.015,0.01-0.03,0.017-0.045c0.023-0.049,0.042-0.101,0.059-0.153c0.015-0.044,0.03-0.088,0.041-0.132   c0.011-0.046,0.017-0.093,0.024-0.14c0.008-0.054,0.014-0.107,0.016-0.16c0.001-0.017,0.005-0.032,0.005-0.049v-7.997   c0-1.401,1.137-2.542,2.535-2.542h4.011c1.398,0,2.535,1.14,2.535,2.542V93.5c0,0.016,0.004,0.031,0.005,0.047   c0.002,0.054,0.009,0.108,0.016,0.162c0.007,0.046,0.013,0.092,0.023,0.137c0.011,0.046,0.027,0.091,0.042,0.136   c0.017,0.051,0.035,0.101,0.058,0.149c0.007,0.015,0.01,0.031,0.018,0.045c0.009,0.017,0.023,0.029,0.032,0.045   c0.052,0.093,0.112,0.18,0.182,0.26c0.016,0.018,0.03,0.039,0.047,0.056c0.084,0.087,0.178,0.162,0.28,0.226   c0.026,0.016,0.052,0.028,0.079,0.043c0.083,0.046,0.17,0.083,0.261,0.113c0.032,0.01,0.062,0.021,0.094,0.029   c0.114,0.028,0.231,0.048,0.354,0.048c0.004,0,0.007,0.001,0.011,0.001c0.012,0,0.025-0.004,0.037-0.004   c0.098-0.003,0.193-0.013,0.285-0.033c0.03-0.007,0.059-0.019,0.089-0.028c0.078-0.022,0.153-0.048,0.225-0.082   c0.013-0.006,0.027-0.008,0.04-0.015c5.018-2.542,8.135-7.618,8.135-13.248c0-5.647-3.173-10.745-8.162-13.261V31.67   C76.074,29.155,79.247,24.056,79.247,18.41z M68.115,69.578c0.01,0.049,0.028,0.095,0.043,0.143   c0.014,0.045,0.024,0.091,0.042,0.134c0.021,0.05,0.049,0.096,0.075,0.144c0.02,0.037,0.037,0.077,0.061,0.112   c0.028,0.042,0.063,0.079,0.095,0.118c0.029,0.036,0.056,0.074,0.088,0.107c0.039,0.039,0.084,0.072,0.127,0.107   c0.032,0.026,0.061,0.055,0.096,0.079c0.082,0.056,0.17,0.105,0.263,0.144c4.4,1.86,7.242,6.147,7.242,10.924   c0,3.609-1.607,6.93-4.313,9.149v-5.235c0-3.056-2.483-5.542-5.535-5.542h-4.011c-3.052,0-5.535,2.486-5.535,5.542v5.233   c-2.706-2.222-4.313-5.542-4.313-9.146c0-4.779,2.845-9.068,7.249-10.929c0.093-0.039,0.181-0.087,0.263-0.144   c0.036-0.024,0.065-0.054,0.098-0.081c0.042-0.034,0.086-0.066,0.124-0.105c0.034-0.034,0.061-0.074,0.092-0.111   c0.031-0.038,0.064-0.074,0.091-0.114c0.025-0.037,0.042-0.078,0.063-0.117c0.025-0.046,0.053-0.091,0.073-0.14   c0.019-0.045,0.029-0.093,0.043-0.14c0.014-0.046,0.031-0.09,0.041-0.137c0.02-0.098,0.03-0.197,0.03-0.298V30.726   c0-0.101-0.01-0.201-0.03-0.298c-0.009-0.047-0.027-0.091-0.041-0.137c-0.014-0.047-0.025-0.095-0.043-0.14   c-0.02-0.049-0.048-0.094-0.073-0.14c-0.021-0.039-0.039-0.079-0.063-0.117c-0.027-0.041-0.06-0.076-0.091-0.114   c-0.03-0.037-0.058-0.077-0.092-0.111c-0.038-0.039-0.082-0.07-0.124-0.105c-0.033-0.027-0.063-0.057-0.098-0.081   c-0.082-0.056-0.17-0.105-0.263-0.144c-4.404-1.861-7.249-6.151-7.249-10.929c0-3.604,1.607-6.924,4.313-9.146v5.233   c0,3.056,2.483,5.542,5.535,5.542h4.011c3.052,0,5.535-2.486,5.535-5.542V9.261c2.706,2.219,4.313,5.54,4.313,9.149   c0,4.776-2.843,9.064-7.242,10.924c-0.093,0.039-0.181,0.087-0.263,0.144c-0.035,0.024-0.064,0.054-0.097,0.08   c-0.043,0.035-0.087,0.067-0.125,0.106c-0.033,0.034-0.06,0.072-0.089,0.108c-0.032,0.039-0.066,0.075-0.094,0.117   c-0.024,0.036-0.041,0.075-0.061,0.112c-0.026,0.048-0.054,0.094-0.075,0.144c-0.018,0.044-0.028,0.09-0.042,0.135   c-0.014,0.047-0.033,0.093-0.042,0.142c-0.02,0.098-0.03,0.197-0.03,0.298v38.56C68.085,69.381,68.095,69.481,68.115,69.578z"/><path d="M64.394,33.316c-0.829,0-1.5,0.671-1.5,1.5v30.367c0,0.829,0.671,1.5,1.5,1.5s1.5-0.671,1.5-1.5V34.816   C65.894,33.988,65.222,33.316,64.394,33.316z"/><path d="M13.824,33.666c0,0.67,0.543,1.212,1.212,1.212s1.212-0.543,1.212-1.212V30.59h-2.424V33.666z"/><path d="M16.248,25.09c0-0.67-0.543-1.212-1.212-1.212s-1.212,0.543-1.212,1.212v3.076h2.424V25.09z"/><path d="M19.324,28.166h-3.076v2.424h3.076c0.67,0,1.212-0.543,1.212-1.212S19.994,28.166,19.324,28.166z"/><path d="M10.748,28.166c-0.67,0-1.212,0.543-1.212,1.212s0.543,1.212,1.212,1.212h3.076v-2.424H10.748z"/><path d="M83.752,63.731c0,0.67,0.543,1.212,1.212,1.212s1.212-0.543,1.212-1.212v-3.076h-2.424V63.731z"/><path d="M86.176,55.155c0-0.67-0.543-1.212-1.212-1.212s-1.212,0.543-1.212,1.212v3.076h2.424V55.155z"/><path d="M89.252,58.231h-3.076v2.424h3.076c0.67,0,1.212-0.543,1.212-1.212S89.921,58.231,89.252,58.231z"/><path d="M80.676,58.231c-0.67,0-1.212,0.543-1.212,1.212s0.543,1.212,1.212,1.212h3.076v-2.424H80.676z"/></g><text x="0" y="115" fill="#000000" font-size="5px" font-weight="bold" font-family="'Helvetica Neue', Helvetica, Arial-Unicode, Arial, Sans-serif">Created by Maxim Kulikov</text><text x="0" y="120" fill="#000000" font-size="5px" font-weight="bold" font-family="'Helvetica Neue', Helvetica, Arial-Unicode, Arial, Sans-serif">from the Noun Project</text></svg>